<?xml version="1.0" standalone="no"?>
<!DOCTYPE svg PUBLIC "-//W3C//DTD SVG 1.1//EN" "http://www.w3.org/Graphics/SVG/1.1/DTD/svg11.dtd" >
<svg xmlns="http://www.w3.org/2000/svg">
<metadata></metadata>
<defs>
<font id="toolboxiconssetaregular" horiz-adv-x="2048" >
<font-face units-per-em="2048" ascent="2048" descent="0" />
<missing-glyph horiz-adv-x="512" />
<glyph horiz-adv-x="0" />
<glyph horiz-adv-x="0" />
<glyph unicode=" "  horiz-adv-x="512" />
<glyph unicode="&#x09;" horiz-adv-x="512" />
<glyph unicode="&#xa0;" horiz-adv-x="512" />
<glyph unicode="(" horiz-adv-x="1755" d="M0 360v146q0 31 21.5 52.5t52.5 21.5h1607q31 0 52.5 -21.5t21.5 -52.5v-146q0 -31 -21.5 -52t-52.5 -21h-1607q-31 0 -52.5 21t-21.5 52zM0 944v148q0 29 21.5 51t52.5 22h1607q31 0 52.5 -22.5t21.5 -50.5v-148q0 -29 -21.5 -50.5t-52.5 -21.5h-1607q-31 0 -52.5 21.5 t-21.5 50.5zM0 1530v147q0 29 21.5 50.5t52.5 21.5h1607q31 0 52.5 -21.5t21.5 -50.5v-147q0 -29 -21.5 -51.5t-52.5 -22.5h-1607q-31 0 -52.5 22.5t-21.5 51.5z" />
<glyph unicode=")" horiz-adv-x="1755" d="M0 104v1829q0 45 31.5 77t79.5 32h1024q43 0 100 -23q51 -20 86 -55l356 -356q35 -35 56 -86q23 -57 22 -101v-1317q0 -47 -31.5 -78.5t-76.5 -31.5h-1536q-47 0 -79 31.5t-32 78.5zM145 141h1465v1170h-475q-47 0 -79 31.5t-32 78.5v475h-879v-1755zM291 776 q-18 23 0 45l258 344q10 12 24.5 14.5t26.5 -8.5l57 -43q14 -10 16.5 -24t-7.5 -27l-209 -278l209 -279q10 -12 8 -26.5t-17 -24.5l-57 -43q-12 -10 -26.5 -8t-24.5 14zM727 336l158 950q2 14 14 23.5t29 5.5l71 -10q14 -4 23.5 -15.5t5.5 -27.5l-158 -951q-2 -14 -14 -23 t-27 -5l-73 10q-14 4 -23.5 15.5t-5.5 27.5zM1081.5 1103.5q1.5 14.5 16.5 24.5l57 43q12 10 26.5 8.5t24.5 -14.5l258 -344q18 -23 0 -45l-258 -344q-10 -12 -24.5 -14t-26.5 8l-57 43q-14 10 -16 24.5t8 26.5l208 279l-208 278q-10 12 -8.5 26.5zM1169 1456h430 q-12 35 -24 47l-358 359q-13 12 -48 24v-430z" />
<glyph unicode="*" horiz-adv-x="2193" d="M0 555v1243q0 76 53 129q57 53 129 53h1829q76 0 129 -53q53 -51 53 -129v-1243q0 -78 -53 -129q-53 -55 -129 -55h-620q0 -31 11 -66t24.5 -65.5t24.5 -54t11 -33.5q0 -29 -21.5 -50.5t-49.5 -21.5h-586q-31 0 -52.5 21.5t-21.5 50.5q0 10 11.5 33.5t25.5 54t25.5 64.5 t11.5 67h-623q-74 0 -129 55q-53 53 -53 129zM145 848q0 -16 11.5 -26.5t25.5 -10.5h1829q16 0 26.5 10t10.5 27v950q0 14 -10 25.5t-27 11.5h-1829q-14 0 -25.5 -11.5t-11.5 -25.5v-950z" />
<glyph unicode="+" horiz-adv-x="1316" d="M0 408v1243q0 76 53 129q55 55 129 55h953q74 0 129 -55q53 -53 53 -129v-1243q0 -72 -53 -129q-57 -53 -129 -54h-953q-72 0 -129 54q-53 57 -53 129zM145 555q0 -16 11.5 -26.5t25.5 -10.5h953q14 0 24 10.5t10 26.5v1096q0 16 -10 26.5t-24 10.5h-953 q-14 0 -25.5 -10.5t-11.5 -26.5v-1096zM583.5 371.5q0.5 -29.5 22.5 -52.5q23 -23 52.5 -22.5t52.5 22.5q20 23 20 52.5t-20 52.5q-23 20 -52.5 20t-52.5 -20q-23 -23 -22.5 -52.5z" />
<glyph unicode="," horiz-adv-x="880" d="M0 412v1171q0 59 43 103q43 43 102 43h586q59 0 103 -43q45 -45 45 -103v-1171q0 -57 -45 -103q-43 -43 -103 -43h-586q-59 0 -102 43q-43 44 -43 103zM111 596q0 -16 10 -26.5t24 -10.5h586q16 0 26.5 10.5t10.5 26.5v805q0 14 -10 24.5t-27 10.5h-586q-14 0 -24 -10.5 t-10 -24.5v-805zM330 1565q0 -19 18 -19h182q18 0 19 19q0 18 -19 18h-182q-18 0 -18 -18zM346 411.5q0 -36.5 27 -63.5q29 -29 65.5 -29t65.5 29q27 27 26.5 64t-26.5 65q-29 27 -65.5 28t-65.5 -28q-27 -29 -27 -65.5z" />
<glyph unicode="-" horiz-adv-x="1755" d="M0 287v512q0 31 21.5 52t52.5 21h512q23 0 40 -13t25 -32.5t5 -41t-19 -37.5l-158 -158q82 -76 185.5 -117t214.5 -41q150 0 284 76q135 76 213 205q6 10 21.5 41.5t38.5 91.5q12 27 34 26h220q16 0 26 -11t10 -25v-9q-74 -307 -307 -497q-231 -188 -547 -189 q-166 0 -321.5 62.5t-278.5 179.5l-147 -147q-16 -16 -37.5 -19.5t-41 4.5t-33 25.5t-13.5 40.5zM20 1200v8q74 307 310 498q238 190 549 190q166 0 323.5 -63.5t280.5 -179.5l147 147q16 16 38 19.5t41.5 -5t32.5 -25.5t13 -40v-512q0 -29 -21.5 -50.5t-52.5 -21.5h-512 q-23 0 -40 13.5t-25 32t-5 40t19 37.5l158 158q-170 158 -397 158q-156 0 -287 -74q-127 -72 -213 -205q-14 -23 -60 -135q-12 -25 -34 -25h-228q-16 0 -26.5 10.5t-10.5 24.5z" />
<glyph unicode="." d="M0 1270q0 28 23 51l583 586q16 16 38 19t41.5 -5t32.5 -25.5t13 -40.5v-292h256q815 0 1000 -461q61 -154 61 -381q0 -96 -37 -223t-108 -293q-6 -14 -19.5 -44t-23.5 -42q-12 -18 -31 -19q-37 0 -37 39q0 10 3 30.5t3 27.5q2 39 4 73.5t2 67.5q0 174 -43 292t-125 187 q-55 49 -119.5 80t-152.5 49q-88 16 -176 23.5t-201 7.5h-256v-293q0 -23 -13 -40t-32.5 -25.5t-41 -5.5t-38.5 20l-583 586q-23 23 -23 51z" />
<glyph unicode="/" d="M0 721q0 227 61 381q184 461 1000 461h256v292q0 23 13 40.5t32.5 25.5t41 5t38.5 -19l583 -586q23 -23 23 -51.5t-23 -50.5l-583 -586q-16 -16 -38 -19.5t-41.5 5t-32.5 26t-13 39.5v293h-256q-113 0 -201 -6q-90 -8 -177 -25.5t-153 -48.5q-63 -31 -119.5 -79 t-91.5 -116q-35 -66 -55 -156.5t-20 -207.5q0 -33 2 -67.5t4 -73.5q0 -6 3 -26.5t3 -31.5q0 -39 -37 -39q-18 0 -31 19q-10 12 -23 41.5t-20 44.5q-72 166 -108.5 293t-36.5 223z" />
<glyph unicode="0" d="M307 287v51v1083v21v49l533 530h34h588h49q35 1 35 -34v-80v-1569v-51q0 -37 -35 -37h-32h-1104h-31q-37 0 -37 37zM512 455h831v1364h-432v-365q0 -33 -37 -33h-362v-966zM606 78v67h1014q31 0 31 33v1372h71q29 0 29 -32v-1440q0 -31 -29 -31h-1087q-29 0 -29 31z" />
<glyph unicode="1" d="M84 1014q0 199 76 375q76 174 205 303t305 206q176 76 374 76q201 0 373 -76q174 -78 303 -206l13 10l161 115q18 12 43 4q23 -12 23 -37l2 -727q0 -20 -16 -33q-18 -12 -39 -6l-688 235q-27 10 -29 33q-6 23 16 39l162 115l27 20q-72 57 -161 89t-190 32 q-117 0 -220 -45t-180 -122t-122 -180.5t-45 -219.5q0 -117 45 -220.5t122 -180t180.5 -122t219.5 -45.5q141 0 269 66q125 66 203 184q12 18 33.5 22.5t37.5 -7.5l242 -168q14 -8 18 -31q6 -16 -6 -35q-137 -203 -346 -313.5t-451 -110.5q-100 0 -192 19.5t-182 56.5 q-174 76 -305 205q-129 131 -205 305q-76 172 -76 375z" />
<glyph unicode="2" d="M63 1057l3 727q0 25 22 37q25 8 43 -4l162 -115l12 -10q129 129 303 206q172 76 373 76q199 0 375 -76q174 -78 305 -206q127 -129 205 -303q76 -176 76 -375q0 -203 -76 -375q-76 -174 -205 -305q-131 -129 -305 -205q-90 -37 -182.5 -56.5t-192.5 -19.5 q-242 0 -450.5 110.5t-346.5 313.5q-12 18 -6 35q4 23 19 31l241 168q16 12 38 8t34 -23q78 -119 203 -184q127 -66 268 -66q117 0 220.5 45.5t180 122t121.5 180t45 220.5t-45 220t-121.5 180t-180 122t-220.5 45q-100 0 -189.5 -31.5t-160.5 -89.5l26 -20l162 -115 q23 -16 17 -39q-2 -23 -29 -33l-688 -235q-20 -6 -39 6q-16 12 -17 33z" />
<glyph unicode="3" d="M63 791v446q0 20 14.5 34.5t35.5 14.5h639v639q0 20 13 34.5t36 14.5h446q20 0 34.5 -14t14.5 -35v-639h639q20 0 35 -13t15 -36v-446q0 -20 -14.5 -35t-35.5 -15h-639v-639q0 -20 -13 -34.5t-36 -14.5h-446q-20 0 -34.5 13.5t-14.5 35.5v639h-639q-20 0 -35 15t-15 35z " />
<glyph unicode="4" d="M315 1022l1012 1014l410 -410l-604 -602l604 -602l-410 -410z" />
<glyph unicode="5" d="M465 332l602 602l-602 602l412 410l974 -975l37 -37l-2 -2v-2l-1009 -1008z" />
<glyph unicode="6" d="M45 1026q0 23 2 53.5t8 71.5l258 63l2 11q14 41 28.5 81t37.5 78l4 9l-135 229q80 98 178 178l227 -137l9 4q37 23 77.5 40t83.5 28l9 2l63 258q41 4 72.5 6t54.5 2q29 0 60.5 -2t66.5 -6l63 -258l11 -2q41 -12 81 -28.5t78 -39.5l9 -4l229 137q104 -82 176 -178 l-135 -229l4 -9q23 -35 38 -74.5t30 -84.5l2 -11l258 -63q4 -39 6 -69.5t2 -55.5q0 -29 -2 -60.5t-6 -66.5l-258 -63l-2 -11q-14 -43 -29.5 -83t-38.5 -76l-4 -9l135 -229q-78 -102 -176 -178l-229 137l-9 -4q-39 -23 -78.5 -38t-80.5 -30l-11 -2l-63 -258q-41 -4 -72.5 -6 t-54.5 -2q-29 0 -60.5 2t-66.5 6l-63 258l-9 2q-43 12 -83 28.5t-78 39.5l-9 4l-227 -137q-102 80 -178 178l135 229l-4 9q-23 37 -37 76.5t-29 82.5l-2 11l-258 63q-6 35 -8 66.5t-2 60.5zM657 1026q0 -154 107 -260q106 -106 260 -107q154 0 260 107q107 106 107 260 q0 152 -107 258q-106 106 -260 107q-154 0 -260 -107q-106 -106 -107 -258z" />
<glyph unicode="7" d="M49 774l363 363l352 -353l1034 1035l363 -361l-1397 -1401z" />
<glyph unicode="8" d="M180 543l482 481l-482 481l363 363l481 -482l481 482l363 -363l-482 -481l482 -481l-363 -363l-481 482l-481 -482z" />
<glyph unicode="9" d="M-23 -23l189 572l381 -379zM319 688l1049 1049l365 -367l-1049 -1046zM1513 1882l162 166q25 23 56.5 23t56.5 -23l260 -260q23 -25 23 -58.5t-23 -54.5l-168 -157z" />
<glyph unicode=":" d="M0 934l1024 772v-512h1024v-512h-1024v-512z" />
<glyph unicode=";" d="M0 682v512h1024v512l1024 -772l-1024 -764v512h-1024z" />
<glyph unicode="&#x3c;" d="M0 0h682l-219 221l502 502l-242 242l-502 -502l-221 219v-682zM1083 1327l502 502l-219 219h682v-682l-219 219l-502 -502z" />
<glyph unicode="=" d="M57 301l504 504l-219 219h682v-682l-219 221l-504 -504zM1024 1024v682l221 -219l502 504l244 -242l-504 -504l219 -221h-682z" />
<glyph unicode="&#x3e;" horiz-adv-x="1755" d="M0 287v194q137 -96 371 -145q236 -49 508 -49q268 0 505 49q233 49 371 145v-194q0 -82 -117 -146q-117 -66 -321 -106q-205 -41 -438 -41q-121 0 -229.5 10t-211.5 31q-205 41 -321 106q-117 64 -117 146zM0 725v195q137 -96 371 -146q236 -49 508 -49q268 0 505 49 q233 49 371 146v-195q0 -78 -117 -145q-123 -70 -321 -109q-100 -18 -210 -28.5t-228 -10.5q-121 0 -229.5 10.5t-211.5 28.5q-199 39 -321 109q-117 67 -117 145zM0 1165v193q133 -92 371 -144q119 -27 244.5 -38t263.5 -11q135 0 261 11.5t244 37.5q238 51 371 144v-193 q0 -80 -117 -147q-117 -66 -321 -107q-100 -20 -210 -29.5t-228 -9.5q-121 0 -229.5 9.5t-211.5 29.5q-205 41 -321 107q-117 67 -117 147zM0 1604v145q0 80 117 147q59 33 139 59.5t182 47.5q102 18 211 28.5t230 10.5q119 0 228.5 -10.5t209.5 -28.5q102 -20 182 -47 t139 -60q117 -68 117 -147v-145q0 -80 -117 -148q-59 -33 -139 -59.5t-182 -46.5q-100 -20 -210 -29.5t-228 -9.5q-121 0 -229.5 9t-211.5 30q-102 20 -182 46.5t-139 59.5q-117 68 -117 148z" />
<glyph unicode="?" d="M0 242v219q0 14 10 25.5t27 11.5h219q14 0 25.5 -11.5t11.5 -25.5v-219q0 -16 -11.5 -26.5t-25.5 -10.5h-219q-16 0 -26.5 10.5t-10.5 26.5zM0 680v219q0 16 10 26.5t27 10.5h219q14 0 25.5 -10.5t11.5 -26.5v-219q0 -14 -11.5 -25.5t-25.5 -11.5h-219q-16 0 -26.5 11.5 t-10.5 25.5zM0 1118v221q0 14 10 24.5t27 10.5h219q14 0 25.5 -10t11.5 -25v-221q0 -14 -11.5 -24.5t-25.5 -10.5h-219q-16 0 -26.5 10.5t-10.5 24.5zM0 1559v219q0 14 10 25.5t27 11.5h219q14 0 25.5 -11.5t11.5 -25.5v-219q0 -16 -11.5 -26.5t-25.5 -10.5h-219 q-16 0 -26.5 10.5t-10.5 26.5zM438 242v219q0 14 11.5 25.5t25.5 11.5h1536q16 0 26.5 -11.5t10.5 -25.5v-219q0 -16 -10 -26.5t-27 -10.5h-1536q-14 0 -25.5 10.5t-11.5 26.5zM438 680v219q0 16 11.5 26.5t25.5 10.5h1536q16 0 26.5 -10.5t10.5 -26.5v-219q0 -14 -10 -25.5 t-27 -11.5h-1536q-14 0 -25.5 11.5t-11.5 25.5zM438 1118v221q0 14 11.5 24.5t25.5 10.5h1536q16 0 26.5 -10t10.5 -25v-221q0 -14 -10 -24.5t-27 -10.5h-1536q-14 0 -25.5 10.5t-11.5 24.5zM438 1559v219q0 14 11.5 25.5t25.5 11.5h1536q16 0 26.5 -11.5t10.5 -25.5v-219 q0 -16 -10 -26.5t-27 -10.5h-1536q-14 0 -25.5 10.5t-11.5 26.5z" />
<glyph unicode="@" horiz-adv-x="1902" d="M0 461v1098q0 104 76 180t180 76h367q100 0 180 -76q76 -80 76 -180v-37h768q104 0 180 -76q76 -80 76 -180v-805q0 -104 -76 -180t-180 -76h-1391q-106 0 -180 76q-76 74 -76 180z" />
<glyph unicode="A" horiz-adv-x="2015" d="M0 242v1568q0 49 18.5 93.5t51 76t76.5 51t94 19.5h1536q49 0 93 -19.5t75.5 -51t51 -75.5t19.5 -94v-1568q0 -49 -19.5 -93.5t-51 -76t-75.5 -51t-93 -19.5h-1536q-49 0 -93.5 19.5t-76 51t-51 76t-19.5 93.5zM186 262h1643v1528h-1643v-1528zM401 578q0 6 11 22 l245 246q23 23 45 0l115 -115q23 -23 0 -45l-246 -248q-16 -10 -22 -10q-12 0 -23 10l-114 117q-11 11 -11 23zM715 1184q0 -88 32.5 -167t94.5 -140q133 -127 307 -127q86 0 166 32.5t141 94.5q61 61 93 141t32 164t-30.5 163.5t-94.5 143.5q-61 61 -142 92t-165 31 t-165 -31t-142 -92q-59 -61 -93 -140t-34 -165zM903 1184q0 98 72 174q72 72 174 72t174 -72q35 -35 53.5 -81t18.5 -94t-17.5 -94.5t-54.5 -78.5q-37 -35 -83 -52.5t-92 -18.5h-5q-43 1 -86 17q-45 18 -82 54q-72 72 -72 174z" />
<glyph unicode="B" horiz-adv-x="2037" d="M0 256q0 -23 16 -39l199 -199q16 -16 39 -16h2q20 0 37 16l426 424q16 16 16 39t-16 39l-201 201q-16 16 -38.5 16t-39.5 -16l-424 -426q-16 -16 -16 -39zM541 1303q0 154 56 287.5t163 240.5q106 104 241.5 161.5t288.5 57.5q309 0 529 -219q111 -111 166 -248 q53 -139 53 -280q0 -143 -54.5 -281.5t-164.5 -249.5q-106 -106 -240.5 -162.5t-288.5 -56.5t-289 56.5t-241 162.5t-162.5 241.5t-56.5 289.5zM864 1303q0 -86 33 -164t92 -138q59 -61 138 -90.5t162 -29.5t162 29.5t140 90.5t92 140.5t31 160t-30.5 159.5t-92.5 141 q-61 59 -138 91.5t-163 32.5t-163.5 -32.5t-137.5 -91.5q-59 -59 -92 -136t-33 -163z" />
<glyph unicode="C" d="M0 1026q0 213 81 399.5t219 325.5t324.5 219t399.5 80q209 0 397 -82q94 -41 176 -95t152 -124q137 -137 217 -326q82 -184 82 -397q0 -141 -37 -272t-103.5 -245t-159.5 -207t-207 -159.5t-245 -103.5t-272 -37t-272 37t-245 103.5t-207 159.5t-159.5 207t-103.5 245 t-37 272zM199 975.5q0 -21.5 4 -43.5l4 -31h317l-6 41q-6 43 -6 78q0 16 2 33.5t4 33.5l4 39h-317l-2 -30q-2 -18 -3 -35.5t-1 -40.5v-44.5zM362 1516l226 -226l24 33q20 27 45 52.5t58 51.5l30 25l-223 223l-24 -18q-37 -29 -63.5 -57.5t-51.5 -59.5zM892 992q1 -8 3 -19 q8 -70 72 -94q35 -10 49 -11q33 0 67 23q53 37 87 115.5t44 185.5v41q0 88 -24 180q-98 -47 -170 -127t-105 -162q-24 -59 -24 -112q0 -11 1 -20zM911 1520l39 6q16 4 35 4h39h10h31.5t32.5 -4l39 -6v319l-31 2q-42 3 -83 3t-81 -3l-31 -2v-319zM1300 1452l33 -25 q31 -23 55.5 -49t47.5 -55l24 -33l223 226l-18 24q-23 29 -50.5 58.5t-64.5 58.5l-24 18zM1522 901h319l2 31q2 23 4 44t2 44v38.5t-4 37.5l-4 30h-317l6 -39q4 -16 4 -32.5v-34.5q0 -35 -6 -78z" />
<glyph unicode="D" horiz-adv-x="1609" d="M4 1456q0 178 127 309q123 125 307 125q90 0 168 -31.5t144 -97.5l692 -692q10 -10 10 -25q0 -20 -35 -53q-35 -35 -53 -35q-14 0 -27 13l-692 692q-88 88 -207 88t-205 -86q-81 -81 -81 -204q0 -122 86 -210l886 -887q71 -71 163 -71h3q76 0 121 47q49 49 49 121 q0 94 -74 166l-663 663q-27 29 -68 29q-35 0 -56 -21.5t-21 -56.5t28 -68l469 -466q12 -12 12 -27q0 -16 -36 -53q-33 -35 -54 -35q-10 0 -24 10l-469 469q-72 72 -72 170q0 94 66 160q65 65 154 65h3q98 0 170 -71l666 -666q113 -111 113 -268q0 -135 -91 -223 q-88 -90 -223 -91q-156 0 -268 115l-889 887q-129 129 -129 309z" />
<glyph unicode="E" horiz-adv-x="1531" d="M0 207v59h756q-74 -106 -194 -178t-273 -88h-82q-43 0 -81 16.5t-65.5 44t-44 65.5t-16.5 81zM0 459v235h1442q-49 -63 -121 -98t-154 -35h-26q-33 0 -68 3t-74 14q-86 23 -161 61q8 -27 8 -78v-14q0 -18 -3 -39.5t-7 -48.5h-836zM0 887v233h1532l-2 -119v-16 q0 -67 -8 -98h-1522zM0 1313v235h1532v-235h-1532zM0 1741v307h1532v-307h-1532z" />
<glyph unicode="F" horiz-adv-x="1964" d="M0 487v1368q0 84 57 142q57 57 142 57h1566q41 0 77 -15.5t63.5 -42t43 -63.5t15.5 -78v-1368q0 -43 -15.5 -78.5t-43 -62.5t-63.5 -42t-77 -15h-82v-178q0 -43 -30.5 -74t-73.5 -31h-225q-43 0 -74 31t-31 74v178h-544v-178q0 -43 -31 -74t-74 -31h-225q-43 0 -74 31 t-31 74v178h-71q-84 0 -142 57q-57 57 -57 141zM233 1042h1498v568h-1498v-568zM270 651q0 -78 54.5 -132t134.5 -54t133 53q55 55 55 133q0 39 -15.5 74t-41 60.5t-60 40t-71.5 14.5q-80 0 -134.5 -54.5t-54.5 -134.5zM526 1745h910v160h-910v-160zM1317 651q0 -78 54 -132 t134 -54t134.5 54t54.5 132q0 80 -54.5 134.5t-134.5 54.5t-134 -54.5t-54 -134.5z" />
<glyph unicode="G" horiz-adv-x="2033" d="M0 1286v660q0 41 29.5 70.5t70.5 29.5h650q41 0 70.5 -29.5t29.5 -70.5v-482h483q41 0 72 -30q29 -35 29 -72v-500h499q41 0 72 -31q29 -35 29 -71v-660q0 -37 -29 -71q-31 -31 -72 -31h-647q-41 0 -70.5 30.5t-29.5 71.5v500h-502q-41 0 -70.5 29.5t-29.5 70.5v482h-484 q-41 0 -71 32q-29 35 -29 72zM190 1702l93 -84l61 65l12 15l-2 -25v-358h142v590h-99zM774 1157l129 -35q4 16 29 52q17 28 60 28h3q35 0 54.5 -20.5t19.5 -46.5q0 -41 -47 -82l-240 -195h-2v-133h437v133h-244l92 64q27 18 54.5 38.5t49 45t35 55.5t13.5 74q0 76 -62 135 q-61 57 -156 57q-90 0 -147 -51q-55 -47 -78 -119zM1378 281q18 -72 84 -119t152 -47q94 0 160 53q61 51 61 135q0 61 -39 94q-41 35 -84 35q16 0 35.5 8.5t37 23.5t29 37.5t11.5 51.5q0 76 -56 125q-57 51 -155 51q-88 0 -147.5 -44t-77.5 -122l124 -35q27 76 93 76 q35 0 53 -16.5t18 -40.5q0 -27 -19.5 -44.5t-62.5 -17.5h-41v-112h41q47 0 71 -18.5t24 -47.5t-21.5 -47t-58.5 -18q-47 0 -71 19t-34 54z" />
<glyph unicode="H" horiz-adv-x="2033" d="M0 1282v660q0 41 29.5 70.5t70.5 29.5h650q41 0 70.5 -30t29.5 -70v-482h483q41 0 72 -30q29 -35 29 -72v-500h499q41 0 72 -31q29 -35 29 -71v-660q0 -37 -29 -71q-31 -31 -72 -31h-647q-41 0 -70.5 30.5t-29.5 71.5v500h-502q-41 0 -70.5 29.5t-29.5 70.5v482h-484 q-41 0 -71 32q-29 35 -29 72zM190 1698l93 -84l61 65l12 15l-2 -25v-358h142v590h-99zM723 805q0 -29 19.5 -48.5t48.5 -19.5h436q29 0 48 19.5t19 48.5v444q0 29 -19.5 48.5t-47.5 19.5h-436q-29 0 -48.5 -19.5t-19.5 -48.5v-444zM1378 276q18 -72 84 -118q66 -47 152 -47 q94 0 160 53q61 51 61 135q0 61 -39 94q-41 35 -84 35q16 0 35.5 8t37 23.5t29 38t11.5 51.5q0 76 -56 125q-57 51 -155 51q-88 0 -147.5 -44t-77.5 -122l124 -35q27 76 93 76q35 0 53 -16.5t18 -38.5q0 -63 -82 -64h-41v-112h41q47 0 71 -18.5t24 -47.5t-21.5 -47 t-58.5 -18q-47 0 -71 19t-34 54z" />
<glyph unicode="I" horiz-adv-x="2072" d="M0 1642q0 86 81 160t222 129t328.5 87t404.5 32q215 0 403.5 -31.5t330 -87t222.5 -130.5t81 -159q0 -68 -56 -131l-4 -8l-112 -106l-218 -201l-389 -356v-740h-2q0 -23 -20.5 -40t-55 -30.5t-82 -20.5t-98.5 -7q-104 0 -178 27.5t-78 70.5h-4v736l-649 612 q-29 18 -47.5 38.5t-36.5 39.5l-6 6l-2 8q-35 53 -35 102zM264 1599q0 -55 60.5 -102t166 -82t246 -55.5t299.5 -20.5q160 0 301.5 20.5t246 55.5t164.5 82t60 102q0 53 -60 101.5t-164.5 84.5t-246 56.5t-301.5 20.5t-300 -20.5t-245.5 -56.5t-166 -84.5t-60.5 -101.5z" />
<glyph unicode="J" horiz-adv-x="2564" d="M0 1006v26q0 23 3 47.5t13 53.5t25.5 57.5t40.5 52.5l74 72q61 61 149 84q27 8 78 8q43 0 86 -12l-238 -236l2 -2l-32 -33q-23 -23 -30 -54q-4 -21 -4 -41q0 -12 1 -23q4 -33 18.5 -65t36.5 -54l47 -47q47 -49 119 -58h29h19t20 2q35 10 53 31l33 31l237 237 q12 -43 13 -90q0 -49 -9 -75q-18 -80 -84 -146l-73 -76q-47 -47 -109 -65q-53 -16 -104 -17h-25q-66 0 -127 31t-108 76l-50 47q-49 47 -73.5 109.5t-30.5 128.5zM434 1135q0 -33 29 -58q18 -25 53 -30h4q31 0 74 43l350 350q41 41 41 71v5q-4 33 -27 55q-27 27 -57 28h-2 q-29 0 -72 -43l-350 -348q-43 -41 -43 -73zM616 1647q0 14 2.5 32t8.5 41q18 80 82 148l104 106q23 23 49.5 38.5t59.5 25.5q25 8 49 13t51 5h13t16 -2q63 -6 126.5 -31.5t108.5 -72.5l47 -49q45 -47 73 -108.5t34 -127.5v-27q0 -43 -17 -102q-18 -61 -65 -109l-105 -102 q-61 -61 -147 -84q-16 -4 -35.5 -6t-42.5 -2q-43 0 -86 12l268 268h-2l33 33q12 12 17.5 25.5t9.5 27.5q6 20 6 41q0 6 -1 12.5t-1 12.5q-10 70 -58 119l-47 47q-47 47 -116 57h-25h-20.5t-20.5 -4q-29 -6 -53 -31l-33 -30l-268 -269q-6 23 -10.5 46.5t-4.5 46.5zM879 537 q57 117 144 214t196.5 166.5t236.5 108.5t266 39q137 0 264.5 -39t236 -108.5t195.5 -167t146 -213.5q-59 -117 -146 -214.5t-195.5 -167t-235.5 -108.5t-265 -39q-139 0 -266 38t-236.5 107.5t-196.5 167t-144 216.5zM1329 537q0 -82 31 -154t84 -125t124.5 -84t153.5 -31 t154 31t126 84t85 125t31 154t-31 153.5t-85 124.5t-126 84t-154 31t-153.5 -31t-124.5 -84t-84 -124.5t-31 -153.5zM1489 537q0 84 53 149q51 63 135 80q16 8 47 8q49 0 92.5 -19.5t75 -51t50 -74.5t18.5 -92q0 -43 -16.5 -84t-45 -73t-66.5 -52.5t-83 -22.5q-2 -2 -27 -2 q-49 0 -91 18.5t-73.5 49t-50 74t-18.5 92.5z" />
<glyph unicode="K" d="M61 104v271q0 43 31 73.5t76 30.5h702v815q-109 41 -176 142q-67 97 -67 217q0 84 30.5 155.5t84 125t125 84t151.5 30.5t151.5 -30.5t125 -84t84 -125t30.5 -151.5q0 -123 -68 -221t-176 -142v-815h703q45 0 75.5 -30.5t30.5 -73.5v-271q0 -43 -30.5 -73.5t-75.5 -30.5 h-1700q-45 0 -76 30.5t-31 73.5z" />
<glyph unicode="L" d="M0 522v979q0 74 51 125q53 53 127 53h1682q74 0 127 -53q51 -51 51 -125v-979q0 -76 -51 -127t-127 -51h-1682q-76 0 -127 51t-51 127zM209 553h1620v917h-1620v-917zM432 737v531h189v-531h-189z" />
<glyph unicode="M" d="M0 362l2 1039l909 -166l-2 -1038zM166 1552l641 275l909 -164l-641 -274zM1389 197l2 1038l641 276l-2 -1038z" />
<glyph unicode="N" d="M0 827v238h504l-72 -111q-16 -25 -18 -50t4 -50l10 -27h-428zM125 167.5v27.5v40.5t4 38.5q4 61 16.5 108.5t26.5 74.5q47 84 121 118q39 16 65 17q43 0 86 -25q94 -51 111 -127q2 -10 2 -18v-19q0 -59 -33 -116q-35 -61 -88 -86t-108.5 -44.5t-105.5 -51t-79 -105.5 q-8 35 -11 70.5t-5 70.5q-2 14 -2 26.5zM406 659l88 160l137 -78l-88 -157zM512 885q0 6 6 16l410 635l-164 317l149 76l119 -231l221 340q7 9 8.5 9t-4.5 -11l-190 -408l573 -1110l-149 -78l-512 996l-291 -629q-4 -10 -15 -14.5t-22 2.5l-123 67q-16 10 -16 23zM809 827 l111 238h137l123 -238h-371zM1466 389l269 139l80 -487zM1470 1065h502v-238h-379z" />
<glyph unicode="O" d="M0 0v788h788v-788h-788zM0 961v788h788v-788h-788zM961 0v788h788v-788h-788zM1260 1260v788h788v-788h-788z" />
<glyph unicode="P" d="M0 498v1052q0 102 39 193.5t106.5 159t157.5 106.5t195 39h1052q102 0 193.5 -39t159 -106.5t106.5 -157.5t39 -195v-1052q0 -102 -39 -193.5t-106.5 -159t-157.5 -106.5t-195 -39h-1052q-102 0 -193.5 39t-159 106.5t-106.5 158t-39 194.5zM197 498q0 -61 23.5 -116.5 t64.5 -96.5t96 -64.5t117 -23.5h1052q61 0 116.5 23.5t96.5 64.5t64.5 96.5t23.5 116.5v932h-1654v-932zM406 803q0 82 26.5 152.5t74.5 122.5t113.5 81t145.5 29t146.5 -29t114.5 -81t74.5 -122.5t26.5 -152.5q0 -84 -26.5 -153.5t-74.5 -121t-114.5 -80t-146.5 -28.5 t-145.5 28.5t-113.5 80t-74.5 121t-26.5 153.5zM590 803q0 -98 45 -152.5t131 -54.5q82 0 130 54.5t48 152.5t-48 153.5t-130 55.5q-86 0 -131 -55.5t-45 -153.5zM1202 918l258 253h123v-737h-176v447l2 32l-14 -20l-78 -78z" />
<glyph unicode="Q" d="M14 1016q70 141 174.5 257t235.5 198.5t282.5 129t315.5 46.5q166 0 318.5 -46.5t282.5 -129t234.5 -198.5t174.5 -257q-70 -141 -174.5 -258t-235.5 -201t-282.5 -130t-317.5 -46q-164 0 -315.5 46t-282.5 130t-235.5 201t-174.5 258zM553 1016q0 -98 37 -185.5 t101.5 -152t150.5 -101t184 -36.5q96 0 182 36.5t150.5 101t101.5 152t37 185.5t-37 183t-101.5 149.5t-150.5 101.5t-182 37q-98 0 -184 -37t-150.5 -101.5t-101.5 -149.5t-37 -183zM743 1016q0 102 64 178q66 78 164 96q27 6 57 6q57 0 108.5 -22.5t90.5 -60t60.5 -89 t21.5 -108.5q0 -55 -19.5 -105.5t-53.5 -87.5t-80 -60.5t-99 -27.5q-2 -2 -31 -2q-59 0 -110.5 21.5t-89.5 60.5t-60.5 90.5t-22.5 110.5z" />
<glyph unicode="R" d="M61 1024q76 43 118 95t61 98q10 27 17 53t7 53v188q0 117 37 215.5t110.5 170t184.5 111.5t256 40v-305q-49 0 -96 -9.5t-83 -40t-58.5 -88t-22.5 -153.5v-76q0 -90 -26.5 -155.5t-60.5 -109.5t-63.5 -65.5t-33.5 -21.5q4 0 33.5 -22.5t63.5 -67.5t60.5 -110.5 t26.5 -151.5v-76q0 -96 22.5 -153.5t58.5 -88t83 -40t96 -9.5v-305q-145 0 -256 40t-184.5 111.5t-110.5 170t-37 215.5v188q0 27 -7 52.5t-17 53.5q-18 47 -60.5 98.5t-118.5 94.5zM1208 0v305q49 0 96.5 9.5t84 40t59 88t22.5 153.5v76q0 86 27 151.5t59 110.5 q33 45 63 67.5t34 22.5q-4 0 -34 21.5t-63 64.5q-33 45 -59.5 109.5t-26.5 156.5v76q0 96 -22.5 153.5t-59 88t-84 40t-96.5 9.5v305q145 0 256 -40t184.5 -111.5t110.5 -170t37 -215.5v-188q0 -27 7 -53.5t18 -52.5q18 -45 59 -97.5t119 -95.5q-78 -43 -119 -94t-59 -99 q-10 -29 -17.5 -54t-7.5 -52v-188q0 -117 -37 -215.5t-110.5 -170t-184.5 -111.5t-256 -40z" />
<glyph unicode="S" d="M0 967l602 600l211 -213l-387 -387l397 -400l-209 -211h-6zM1217 567l397 400l-387 387l213 213l602 -600l-539 -541l-76 -70z" />
<glyph unicode="T" d="M43 647v729q0 57 35 111l457 -457l-469 -469q-23 41 -23 86zM115 494l477 477l420 -422l422 422l491 -492q-23 -14 -50.5 -22t-57.5 -8h-1573q-72 0 -129 45zM123 1534q18 18 55 29q0 2 2 2q12 6 29 6q0 2 4 2q2 2 31 2h1573q23 0 24 -2h6h9.5t11.5 -4h2q27 -7 47 -21 l-903 -850zM1493 1030l475 475q49 -55 49 -129v-729q1 -57 -32 -108z" />
<glyph unicode="U" d="M2 238v487q0 82 32 155.5t86 129t128 87t158 31.5q82 0 155.5 -31.5t128.5 -87t87 -129t32 -155.5v-487q0 -23 -16.5 -39.5t-38.5 -16.5h-697q-23 0 -39 16.5t-16 39.5zM70 1530q0 68 25.5 126t70.5 103t103.5 70.5t125.5 25.5q68 0 127.5 -26.5t103.5 -70.5t69.5 -103.5 t25.5 -124.5q0 -68 -25.5 -127.5t-69.5 -103.5t-103.5 -68.5t-127.5 -24.5t-126 24.5t-103 68.5t-70.5 103.5t-25.5 127.5zM1233 238v487q0 82 31.5 155.5t86 129t128 87t157.5 31.5t158 -31.5t128 -87t86 -129t32 -155.5v-487q0 -23 -16.5 -39.5t-38.5 -16.5h-697 q-23 0 -39 16.5t-16 39.5zM1303 1530q0 68 25.5 126t68.5 103t102.5 70.5t126.5 25.5q68 0 126 -26.5t103.5 -70.5t71 -103.5t25.5 -124.5q0 -68 -25.5 -127.5t-71 -103.5t-103.5 -68.5t-126 -24.5t-127 24.5t-102 68.5t-68.5 103.5t-25.5 127.5z" />
<glyph unicode="V" horiz-adv-x="2054" d="M0 25v489h489v-489h-489zM0 840v489h489v-489h-489zM672 1352l710 696h340v-1534h330v-489h-1147v489h330v735l6 88l-41 -55l-213 -217z" />
<glyph unicode="W" horiz-adv-x="2045" d="M0 700v670q0 66 47 113t113 47h223v256q0 49 35 84t84 35h1036q49 0 84 -35t35 -84v-256h225q66 0 113 -47t47 -113v-670q0 -66 -47 -112.5t-113 -46.5h-225v-250q0 -49 -35 -84t-84 -35h-1036q-49 0 -84 35t-35 84v250h-223q-66 0 -113 47t-47 112zM514 401 q0 -53 18.5 -73.5t77.5 -20.5h820q61 0 78.5 18.5t17.5 75.5v217v355h-1012v-432v-140zM514 1530h1012v143q0 55 -18.5 75.5t-77.5 20.5h-820q-61 0 -78.5 -18.5t-17.5 -77.5v-143z" />
<glyph unicode="X" horiz-adv-x="2045" d="M197 264q0 55 20.5 103.5t56 84t84 56t103.5 20.5t103 -20.5t84 -56t56.5 -84t20.5 -103.5t-20.5 -103t-56.5 -84t-84 -56.5t-103 -20.5t-103.5 20.5t-84 56.5t-56 84t-20.5 103zM197 1024q0 55 20.5 103.5t56 84t84 56t103.5 20.5t103 -20.5t84 -56t56.5 -84 t20.5 -103.5t-20.5 -103.5t-56.5 -84t-84 -56t-103 -20.5t-103.5 20.5t-84 56t-56 84t-20.5 103.5zM197 1784q0 55 20.5 103t56 84t84 56.5t103.5 20.5t103 -20.5t84 -56.5t56.5 -84t20.5 -103t-20.5 -103.5t-56.5 -84t-84 -56t-103 -20.5t-103.5 20.5t-84 56t-56 84 t-20.5 103.5zM926 201v125q0 47 31.5 78.5t78.5 31.5h703q47 0 78.5 -31.5t31.5 -78.5v-125q0 -45 -31.5 -77t-78.5 -32h-703q-47 0 -78.5 32t-31.5 77zM926 967v125q0 45 31.5 76.5t78.5 31.5h703q47 0 78.5 -31.5t31.5 -76.5v-125q0 -47 -31.5 -79t-78.5 -32h-703 q-47 0 -78.5 32t-31.5 79zM926 1722v125q0 45 31.5 77t78.5 32h703q47 0 78.5 -32t31.5 -77v-125q0 -47 -31.5 -78.5t-78.5 -31.5h-703q-47 0 -78.5 31.5t-31.5 78.5z" />
<glyph unicode="Y" horiz-adv-x="2045" d="M41 737v592q0 33 22.5 55.5t55.5 22.5h1808q33 0 55.5 -22.5t22.5 -55.5v-592q0 -31 -22.5 -53t-55.5 -22h-1808q-33 0 -55.5 22.5t-22.5 52.5zM182 264q0 55 20.5 103.5t56.5 84t84 56t103 20.5t103.5 -20.5t84.5 -56t56.5 -84t20.5 -103.5t-20.5 -103t-56.5 -84 t-84 -56.5t-104 -20.5q-55 0 -103 20.5t-84 56.5t-56.5 84t-20.5 103zM182 1024q0 -55 20.5 -103.5t56.5 -84t84 -56t103 -20.5t103.5 20.5t84.5 56t56.5 84t20.5 103.5t-20.5 103.5t-56.5 84t-84 56t-104 20.5q-55 0 -103 -20.5t-84 -56t-56.5 -84t-20.5 -103.5zM182 1784 q0 55 20.5 103t56.5 84t84 56.5t103 20.5t103.5 -20.5t84.5 -56.5t56.5 -84t20.5 -103t-20.5 -103.5t-56.5 -84t-84 -56t-104 -20.5q-55 0 -103 20.5t-84 56t-56.5 84t-20.5 103.5zM911 201v125q0 47 32 78.5t79 31.5h702q47 0 79 -31.5t32 -78.5v-125q0 -45 -31.5 -77 t-79.5 -32h-702q-47 0 -79 32t-32 77zM911 967q0 -47 32 -79t79 -32h702q47 0 79 32t32 79v125q0 45 -31.5 76.5t-79.5 31.5h-702q-47 0 -79 -31.5t-32 -76.5v-125zM911 1722v125q0 45 32 77t79 32h702q47 0 79 -32t32 -77v-125q0 -47 -31.5 -78.5t-79.5 -31.5h-702 q-47 0 -79 31.5t-32 78.5z" />
<glyph unicode="Z" horiz-adv-x="2045" d="M0 1319v240q0 100 39 190t104.5 155.5t154.5 104.5t191 39h154h68h831q100 0 190.5 -39t156 -104.5t104.5 -155.5t39 -190v-240h-1321h-68h-643zM240 1638q0 -41 28.5 -69.5t69.5 -28.5h149q41 0 70 28.5t29 69.5v35q0 41 -29 70t-70 29h-149q-41 0 -69.5 -29t-28.5 -70 v-35zM842 1638q0 -41 29.5 -69.5t70.5 -28.5h150q41 0 69.5 28.5t28.5 69.5v35q0 41 -28.5 70t-69.5 29h-150q-41 0 -70.5 -29t-29.5 -70v-35zM1446 1638q0 -41 28.5 -69.5t69.5 -28.5h150q41 0 69.5 28.5t28.5 69.5v35q0 41 -28.5 70t-69.5 29h-150q-41 0 -69.5 -29 t-28.5 -70v-35z" />
<glyph unicode="[" d="M0 1317v239q0 100 39 190.5t105.5 157t156 105.5t191.5 39h221v-731h-713zM240 1638q0 -41 28.5 -69.5t69.5 -28.5h149q41 0 71 28.5t30 69.5v35q0 41 -30 70t-71 29h-149q-41 0 -69.5 -29t-28.5 -70v-35zM844 1638v35q0 41 28.5 70t69.5 29h150q41 0 70.5 -29t29.5 -70 v-35q0 -41 -29.5 -69.5t-70.5 -28.5h-150q-41 0 -69.5 28.5t-28.5 69.5zM1309 1317v731h235q100 0 190.5 -39t157 -105.5t105.5 -156.5t39 -191v-239h-727zM1448 1638q0 -41 28.5 -69.5t69.5 -28.5h150q41 0 70.5 28.5t29.5 69.5v35q0 41 -29.5 70t-70.5 29h-150 q-41 0 -69.5 -29t-28.5 -70v-35z" />
<glyph unicode="\" horiz-adv-x="2037" d="M0 354v1329q0 86 57.5 143.5t143.5 57.5h1632q39 0 76 -15.5t64.5 -43t44 -64.5t16.5 -78v-1329q0 -41 -16.5 -77.5t-44 -64.5t-64.5 -43t-76 -15h-1632q-86 0 -143.5 57t-57.5 143zM139 299h1759v963h-1759v-963z" />
<glyph unicode="]" horiz-adv-x="2037" d="M0 217v96q2 6 2 27v473q0 51 33 72.5t78 1.5q37 -16 65.5 -25.5t46.5 -13.5q20 -6 39 -6q72 0 123 51t51 123q0 74 -51 125t-123 51q-18 0 -39 -6q-18 -4 -46.5 -13.5t-65.5 -25.5q-45 -20 -78 1t-33 73v473q0 20 -2 26v95h121h475q49 0 70.5 -32t1.5 -79 q-16 -37 -24.5 -65.5t-12.5 -47.5q-6 -23 -6 -37q0 -72 51 -123t123 -51t123 51.5t51 122.5q0 14 -6 37q-4 18 -12.5 47t-24.5 66q-20 47 1 79t70 32h476h120v-121v-473q0 -51 32 -73t79 -1q37 16 65.5 25.5t47.5 13.5q20 6 37 6q37 0 68.5 -13.5t55 -38t38 -56t14.5 -68.5 q0 -74 -52 -124t-124 -50q-16 0 -37 6q-18 4 -47 13t-66 26q-47 20 -79 -1.5t-32 -72.5v-473v-123h-120h-476h-405h-475h-121z" />
<glyph unicode="^" horiz-adv-x="2045" d="M0 356v1057q0 68 25.5 127t70.5 104.5t105.5 71t128.5 25.5h753v-209h-2h-540h-269q-10 0 -12 -2q-51 -10 -51 -62v-254v-913q0 -27 18.5 -46t44.5 -19h914h268q4 0 6 1t6 1q23 4 37.5 22.5t14.5 40.5v254v518h208v-717q0 -68 -25.5 -128t-70.5 -105t-105.5 -70.5 t-127.5 -25.5h-1067q-68 0 -128.5 25.5t-105.5 70.5t-70.5 105.5t-25.5 127.5zM424 883q0 -178 82 -277q84 -100 160 -135q80 -37 174 -37q84 0 164 37q41 20 72.5 45t53.5 59v-114h187v844h-187v-119q-104 145 -284 145q-190 0 -279 -104q-90 -106 -118 -180 q-25 -72 -25 -164zM627 874q0 55 16 101.5t53 85.5q72 72 185 72q109 0 176 -70q68 -72 67 -178q0 -111 -69 -180q-68 -72 -178 -72q-106 0 -177 69q-74 70 -73 172zM1317 1303v725l272 -275l273 272h176v-172l-275 -274l277 -276h-723z" />
<glyph unicode="_" d="M0 111v1826q0 47 32 79t79 32h1826q47 0 79 -31.5t32 -79.5v-1826q0 -47 -31.5 -79t-79.5 -32h-1826q-47 0 -79 31.5t-32 79.5zM330 293h739q309 0 471 131q131 104 131 270q0 156 -119 254q-86 68 -290 117q193 49 268 131q76 82 76 186q0 98 -62 189q-55 86 -164 133 q-104 45 -354 45h-696v-41q100 0 135 -18q39 -20 51 -48q14 -27 14 -149v-944q0 -121 -14 -148q-12 -29 -49 -49q-37 -18 -137 -18v-41zM868 489l2 54v467q82 2 143.5 -6.5t102.5 -24.5q84 -33 131 -113t47 -184q0 -90 -39 -160q-41 -74 -110 -110q-70 -39 -160 -39 q-57 0 -86 28q-33 33 -31 88zM870 1094v573q156 0 228 -31q70 -31 108 -94q39 -61 39 -158q0 -96 -39 -159q-39 -61 -110 -97q-80 -35 -226 -34z" />
<glyph unicode="`" horiz-adv-x="2045" d="M20 1049l496 497l176 -176l-319 -321l329 -328l-174 -174h-4zM801 596q0 -33 14 -87t43 -118.5t71 -134.5t97 -133q-8 59 5 105t38 83t55.5 69t58 67.5t47 76.5t19.5 97q0 104 -55 170.5t-180 66.5q-104 0 -157.5 -72.5t-55.5 -189.5zM854 1582.5q2 64.5 14.5 109.5 t30.5 73q43 70 113 78q66 -6 102 -74q16 -29 28.5 -72.5t15.5 -108t-4 -152.5t-30 -203q2 -14 -7 -23.5t-23 -9.5h-162q-14 0 -23.5 9.5t-7.5 23.5q-29 111 -39 198t-8 151.5zM924 963q0 -14 9 -24.5t23 -10.5h113q14 0 23.5 10.5t9.5 22.5v141q0 14 -9.5 24.5t-23.5 10.5 h-113q-33 0 -32 -33v-141zM1358 721l328 328l-320 321l176 176l496 -497l-445 -445l-61 -57z" />
<glyph unicode="a" horiz-adv-x="2043" d="M0 424v1624h465v-1159h807v416l772 -652l-772 -653v424h-1272z" />
<glyph unicode="b" horiz-adv-x="2537" d="M12 594v842q0 43 17.5 83t47 68.5t69.5 46t83 17.5h2085q45 0 84 -17.5t69 -46t47 -68.5t17 -83v-842q0 -45 -17 -84t-47 -68.5t-69 -46t-84 -16.5h-2085q-43 0 -83 16.5t-69.5 46t-47 68.5t-17.5 84zM508 709l190 180l138 -260l26 -49q16 -31 41 -41q20 -4 23 -4 q23 0 37 8q25 12 30 43q2 2 2 16q0 20 -16 49l-31 56q-16 31 -47 90t-78 159l211 21l-526 502v-770z" />
<glyph unicode="c" horiz-adv-x="2459" d="M2 614v816q0 43 16.5 81.5t45 67.5t66.5 45t81 16h2032q43 0 80.5 -16t66.5 -45t45 -67.5t16 -81.5v-816q0 -43 -16 -81.5t-45 -67.5t-66.5 -45.5t-80.5 -16.5h-2032q-43 0 -81 16.5t-66.5 45.5t-45 67.5t-16.5 81.5zM268 1114h506v268h-506v-268zM975 1114h506v268h-506 v-268zM1681 1114h506v268h-506v-268z" />
<glyph unicode="d" horiz-adv-x="2721" d="M0 895v248q0 25 17.5 43t43.5 18h576q25 0 43 -18.5t18 -42.5v-248q0 -25 -18 -43t-43 -18h-576q-29 0 -45 18t-16 43zM975 895v248q0 25 17.5 43t43.5 18h576q25 0 43 -18.5t18 -42.5v-248q0 -25 -18.5 -43t-42.5 -18h-576q-29 0 -45 18t-16 43zM1950 895v248 q0 25 17.5 43t43.5 18h576q25 0 43 -18.5t18 -42.5v-248q0 -25 -18.5 -43t-42.5 -18h-576q-29 0 -45 18t-16 43z" />
<glyph unicode="e" horiz-adv-x="2435" d="M49 205v1650q0 63 43 107q45 43 107 43h329q63 0 107 -43q45 -45 45 -107v-1650q0 -61 -45 -107q-43 -43 -107 -43h-329q-61 0 -107 45q-43 44 -43 105zM215 221h297v1618h-297v-1618zM893 205v1650q0 63 45 107q43 43 104 43h332q61 0 105 -43q45 -45 45 -107v-1650 q0 -61 -45 -107q-43 -43 -105 -43h-332q-61 0 -106 45q-43 44 -43 105zM1059 221h299v1618h-299v-1618zM1739 205v1650q0 63 43 107q45 43 106 43h330q63 0 106 -43t43 -107v-1650q0 -63 -43 -107q-43 -43 -106 -43h-330q-63 0 -106 45q-43 44 -43 105zM1905 221h297v1618 h-297v-1618z" />
<glyph unicode="f" horiz-adv-x="2123" d="M0 319v1405q0 68 24.5 126.5t68.5 102.5t102.5 68.5t126.5 24.5h1480q66 0 124.5 -25.5t102.5 -68.5t69.5 -101.5t25.5 -126.5v-1405q0 -68 -25.5 -126t-69.5 -101t-102.5 -68.5t-124.5 -25.5h-1480q-68 0 -126.5 25.5t-102.5 68.5t-68.5 101t-24.5 126zM182 319 q0 -59 39 -98q45 -41 101 -41h1480q57 0 99 41q41 41 41 98v1405q0 61 -39 101q-39 39 -101 39h-1480q-61 0 -101 -39q-39 -40 -39 -101v-1405zM420 461v399q0 27 18.5 44.5t46.5 17.5h404q29 0 46 -17.5t17 -44.5v-399q0 -27 -18.5 -45.5t-44.5 -18.5h-404q-29 0 -47 18.5 t-18 45.5zM420 1186v399q0 27 18.5 44.5t46.5 17.5h404q29 0 46 -17.5t17 -44.5v-399q0 -27 -18.5 -45.5t-44.5 -18.5h-404q-29 0 -47 18.5t-18 45.5zM1171 461v399q0 27 17.5 44.5t46.5 17.5h403q27 0 45.5 -17.5t18.5 -44.5v-399q0 -27 -18.5 -45.5t-45.5 -18.5h-403 q-29 0 -46.5 18.5t-17.5 45.5zM1171 1186v399q0 27 17.5 44.5t46.5 17.5h403q27 0 45.5 -17.5t18.5 -44.5v-399q0 -27 -18.5 -45.5t-45.5 -18.5h-403q-29 0 -46.5 18.5t-17.5 45.5z" />
<glyph unicode="g" horiz-adv-x="2258" d="M27 375v731h2191v-731q0 -70 -26.5 -130.5t-71.5 -106.5t-106.5 -72.5t-129.5 -26.5h-1524q-70 0 -130 26.5t-105 72.5t-71.5 106.5t-26.5 130.5zM27 1534v295q0 84 57 139q57 57 139 57h1798q82 0 140 -57q57 -57 57 -139v-295q0 -82 -57 -137q-59 -59 -140 -60h-1798 q-80 0 -139 60q-57 57 -57 137zM242 246h1751v219h-1751v-219zM242 680h1751v217h-1751v-217zM1409 1841l307 -362l309 362h-616z" />
<glyph unicode="h" horiz-adv-x="2555" d="M0 604v850q0 45 17.5 85t47 69.5t69.5 47t85 17.5h2116q45 0 85 -17.5t69.5 -47t47 -69.5t17.5 -85v-850q0 -45 -17.5 -85t-47 -69.5t-69.5 -47t-85 -17.5h-2116q-45 0 -85 17.5t-69.5 47t-47 69.5t-17.5 85zM260 772l184 -184l238 237l240 -237l184 184l-238 240 l238 237l-184 185l-240 -238l-238 238l-184 -185l238 -237zM1452 1018l442 -440l443 442l-152 149l-188 -188v510h-213v-504l-180 182z" />
<glyph unicode="i" horiz-adv-x="2129" d="M0 252v1544q0 51 19.5 97t54.5 81t80 54.5t98 19.5h1626q51 0 97 -19.5t80 -54.5t54.5 -81t20.5 -97v-1544q0 -53 -20.5 -98t-54.5 -80t-80 -54.5t-97 -19.5h-1626q-53 0 -98 19.5t-80 54.5t-54.5 80t-19.5 98zM229 340q0 -18 17.5 -31.5t46.5 -13.5h1546q29 0 45.5 13.5 t16.5 31.5v223q0 18 -16.5 31.5t-45.5 13.5h-1546q-29 0 -46.5 -13.5t-17.5 -31.5v-223zM229 911q0 -18 17.5 -31.5t46.5 -13.5h1546q29 0 45.5 13.5t16.5 31.5v224q0 20 -16.5 33.5t-45.5 13.5h-1546q-29 0 -46.5 -13.5t-17.5 -33.5v-224zM229 1485q0 -18 17.5 -31.5 t46.5 -13.5h1546q29 0 45.5 13t16.5 32v223q0 18 -16.5 31.5t-45.5 13.5h-1546q-29 0 -46.5 -13.5t-17.5 -31.5v-223z" />
<glyph unicode="j" horiz-adv-x="2009" d="M8 356v1346h324v-522h504v522h321v-1346h-321v523h-504v-523h-324zM1298 1237l474 465h223v-1346h-324v815l4 58l-24 -37l-144 -143z" />
<glyph unicode="k" horiz-adv-x="2332" d="M2 373v1296h311v-502h486v502h311v-1296h-311v504h-486v-504h-311zM1366 1321q20 78 63.5 146.5t106.5 118.5t145 80t181 30q104 0 192 -33t151.5 -89t99.5 -134t36 -168q0 -92 -30 -160t-78 -121t-107.5 -97t-120.5 -87l-203 -143h539v-291h-959v291l531 434 q104 86 104 174q0 57 -45 102q-47 47 -121 47q-47 0 -80.5 -18.5t-56 -45t-37 -57t-24.5 -55.5z" />
<glyph unicode="l" horiz-adv-x="2340" d="M-4 367v1294h311v-500h484v500h311v-1294h-311v503h-484v-503h-311zM1313 698l282 78q23 -70 74 -114t154 -44q80 0 127 40t47 100q0 66 -51.5 108.5t-155.5 42.5h-92v242h92q96 0 139 43t43 100q0 45 -43 82t-114 37q-76 0 -125.5 -39t-81.5 -127l-275 76 q39 168 172 266q131 98 324 99q111 0 198 -30t146 -81t91 -121t32 -151q0 -63 -25.5 -113.5t-62.5 -85.5t-80 -53.5t-80 -18.5q51 0 99 -18.5t87 -55t62.5 -89t23.5 -119.5q0 -90 -35.5 -166t-101 -130.5t-156 -85t-198.5 -30.5q-94 0 -179 27.5t-152.5 76t-116 113.5 t-68.5 141z" />
<glyph unicode="m" horiz-adv-x="2422" d="M12 385v1278h307v-494h480v494h307v-1278h-307v496h-480v-496h-307zM1311 614v267l676 782h270v-782h135v-267h-135v-229h-289v229h-657zM1649 881h319v344l2 32l-22 -32z" />
<glyph unicode="n" horiz-adv-x="2254" d="M12 393v1235h297v-477h461v477h295v-1235h-295v481h-461v-481h-297zM1309 682l274 72q6 -20 19.5 -43t36 -42.5t54 -31.5t74.5 -12q76 0 125 49t50 129q0 82 -52 127q-53 49 -123 49q-84 0 -116 -31q-31 -31 -43 -57l-256 70l112 667h701v-274h-477l-29 -172q16 10 43 16 t78 6q98 0 183 -30.5t146.5 -84t97.5 -128t36 -162.5q0 -92 -35 -171t-96.5 -135.5t-146.5 -89t-185 -32.5q-94 0 -174 26.5t-140.5 69.5t-100.5 99.5t-56 115.5z" />
<glyph unicode="p" horiz-adv-x="17027" d="M10 526v342h1979v-342h-1979z" />
<glyph unicode="q" d="M0 555v33q0 37 5 74.5t18 74.5q27 86 94 154l104 104q94 94 211 121q51 12 105 12q72 0 131 -20l-338 -338h2l-47 -47q-31 -31 -43 -76q-6 -29 -6 -59v-15.5t2 -17.5q6 -47 27.5 -92t51.5 -76l68 -68q31 -31 77 -52t93 -27q10 -2 18.5 -2h16.5q29 0 57 6q45 8 78 41 l45 45h2l338 336q20 -59 20 -131q0 -53 -12 -103q-27 -117 -121 -211l-104 -104q-35 -35 -74 -57.5t-84 -36.5q-68 -23 -141 -23h-19.5t-19.5 2q-94 6 -183 45t-155 105l-67 67q-68 68 -109 156t-41 180zM618 733.5q0 -22.5 11.5 -42.5t27.5 -36q18 -18 37 -29.5t41.5 -11.5 t49 13.5t59.5 46.5l499 502q33 33 47.5 59.5t14.5 49t-11.5 40.5t-29.5 37q-16 16 -35.5 26.5t-42 10.5t-50.5 -13.5t-58 -44.5l-500 -499q-33 -33 -46.5 -59.5t-13.5 -49zM879 1466q0 52 12 105q29 123 117 211l149 149q33 33 71 56.5t85 37.5q63 20 147 21h33 q92 0 181 -41t155 -107l67 -67q66 -66 105 -155t45 -183q0 -10 1 -17.5t1 -17.5q0 -68 -23 -147q-23 -84 -92 -154l-149 -149q-90 -90 -209 -119q-55 -12 -109 -12q-63 0 -127 18l381 383v2l43 43q29 29 41 76q6 31 6 57v18.5t-2 18.5q-6 47 -27.5 93t-51.5 77l-68 68 q-31 31 -76 53t-92 26q-4 2 -33 2t-59 -6q-45 -12 -76 -43l-45 -45v2l-383 -383q-18 63 -18 129z" />
<glyph unicode="r" horiz-adv-x="2123" d="M0 311v1426q0 63 24.5 119.5t66.5 99.5t98.5 67.5t121.5 24.5h1501q63 0 121 -24.5t100 -66.5t66.5 -99.5t24.5 -120.5v-1426q0 -66 -24.5 -122t-66.5 -98t-99.5 -66.5t-121.5 -24.5h-1501q-66 0 -122 24.5t-98 66.5t-66.5 98t-24.5 122zM158 311q0 -63 45 -108t108 -45 h1501q66 0 109 45q45 45 45 108v1426q0 63 -45 108q-43 45 -109 45h-1501q-63 0 -108 -45q-45 -42 -45 -108v-1426z" />
<glyph unicode="s" horiz-adv-x="2310" d="M2 176v1716h1073v-1716h-1073zM147 631h132l-46 -312h152l45 312h150l-41 -312h151l41 312h137v139h-114l24 197h137v141h-116l43 309h-152l-41 -309h-153l45 309h-154l-43 -309h-149v-141h129l-27 -197h-150v-139zM406 1696q0 -55 38 -94q39 -37 95 -37q57 0 94 37 q23 23 31 45t8 49q0 55 -39 94q-37 37 -94 37q-55 0 -95 -39q-38 -37 -38 -92zM451 770l26 197h152l-29 -197h-149zM1221 176v1716h1075v-1716h-1075zM1358 1061l172 -154l117 117l20 31l-4 -49v-664h264v1098h-184zM1628 1696q0 -55 39 -94q37 -37 92 -37q57 0 94 37t37 94 t-37 94t-94 37q-55 0 -94 -39q-37 -41 -37 -92z" />
<glyph unicode="t" horiz-adv-x="1722" d="M18 156v284q0 53 39 92t90 39h1424q53 0 92 -39q37 -37 37 -92v-284q0 -53 -37 -90q-39 -39 -92 -39h-1424q-51 0 -90 39t-39 90zM18 885v284q0 51 39 91q38 38 87 38h3h1424q53 0 92 -38q37 -37 37 -91v-284q0 -55 -37 -92q-20 -18 -42 -28.5t-50 -10.5h-1424 q-51 0 -90 39q-39 37 -39 92zM18 1614v282q0 53 39 93q39 39 90 39h1424q53 0 92 -39q37 -37 37 -93v-282q0 -53 -37 -92q-39 -39 -92 -39h-1424q-53 0 -90 39q-39 39 -39 92zM162 170h1397v256h-1397v-256zM162 899h1397v256h-1397v-256zM162 1626h1397v256h-1397v-256z " />
<glyph unicode="u" horiz-adv-x="2129" d="M41 287v1482q0 49 19.5 93.5t52 77t76.5 52t94 19.5h1560q49 0 94 -19.5t78 -52t52.5 -76.5t19.5 -94v-1482q0 -51 -19.5 -95.5t-52.5 -77t-78 -51t-94 -18.5h-1560q-49 0 -93.5 18.5t-77 51t-52 77t-19.5 95.5zM227 1307h148l35 69h252l34 -69h150l-264 557h-93z M463 1503l65 139l9 23l8 -23l63 -139h-145zM913 711h240q102 0 150 49q49 49 49 119q0 47 -27 79q-27 39 -68 52q27 10 46.5 39.5t19.5 70.5q0 59 -47 103q-53 41 -123 41h-240v-553zM1049 819v125h92q31 0 51 -16.5t20 -48.5q0 -60 -71 -60h-92zM1049 1053v104h77 q63 0 64 -53q-1 -51 -64 -51h-77zM1284 463q0 -63 22.5 -116.5t61.5 -91.5t92 -59.5t113 -21.5q88 0 157.5 45t104.5 121l-137 33q-16 -29 -50 -47.5t-75 -18.5q-66 0 -108 42t-42 114q0 70 40 114t110 44q35 0 65.5 -14.5t49.5 -37.5l137 35q-37 68 -101.5 108t-150.5 40 q-59 0 -112.5 -21.5t-92.5 -60.5t-61.5 -91.5t-22.5 -115.5z" />
<glyph unicode="v" horiz-adv-x="2500" d="M61 178v1202q0 49 35 84t84 35h486q49 0 94 33q43 33 57 82l88 295q8 25 21.5 45t36.5 37q44 32 89 32h3h88h117h114h88q49 0 94 -32q45 -35 62 -80l100 -299q14 -47 62 -80q45 -33 94 -33h467q49 0 84 -35t35 -84v-1202q0 -45 -35 -84q-33 -33 -84 -33h-2161 q-51 0 -84 33q-35 35 -35 84z" />
<glyph unicode="w" horiz-adv-x="2285" d="M0 164v1280v64.5t4 37.5q2 10 11.5 40t19.5 63l74 219q10 33 43.5 56.5t68.5 23.5h62h84h88h45q33 0 67 -25q31 -27 41 -57l62 -215q10 -35 31.5 -58.5t41.5 -23.5q23 0 42.5 23.5t29.5 58.5l64 215q8 33 39 57q33 25 67 25h45h88h84h43q35 0 69 -23.5t44 -56.5l74 -219 q10 -33 35.5 -56.5t52.5 -23.5q29 0 51 23.5t33 58.5l63 215q8 33 43 57q31 25 66 25h43h84h86h63q35 0 67.5 -23.5t43.5 -56.5l71 -219q10 -33 20.5 -63t12.5 -40q2 -8 3 -37.5t1 -64.5v-1280q0 -35 -24.5 -59.5t-59.5 -24.5h-2103q-35 0 -59.5 24.5t-24.5 59.5z" />
<glyph unicode="x" horiz-adv-x="2117" d="M0 129v723v575v504h2116v-504v-575v-723h-641h-834h-641zM143 272h498v437h-498v-437zM143 852h498v430h-498v-430zM143 1427h498h834h497v361h-1829v-361zM786 272h543v437h-543v-437zM786 852h543v430h-543v-430zM1475 272h497v437h-497v-437zM1475 852h497v430h-497 v-430z" />
<glyph unicode="y" horiz-adv-x="2205" d="M6 334v753v601h668h870h666v-601v-753h-666h-870h-668zM156 483h518v453h-518v-453zM156 1087h518v449h-518v-449zM825 483h568v453h-568v-453zM825 1087h568v449h-568v-449zM1544 483h516v453h-516v-453zM1544 1087h516v449h-516v-449z" />
<glyph unicode="z" horiz-adv-x="2404" d="M164 127v709v565v495h2077v-495v-565v-709h-629h-817h-631zM305 268h490v426h-490v-426zM305 1401h490h817h487v354h-1794v-354zM936 268h532v426h-532v-426zM936 836h532v424h-532v-424zM1612 268h487v426h-487v-426zM1612 836h487v424h-487v-424z" />
<glyph unicode="{" horiz-adv-x="1984" d="M16 180v670v1001h1962v-469v-532v-670h-596h-770h-596zM152 313h460v404h-460v-404zM152 850h460v399h-460v-399zM745 313h504v404h-504v-404zM745 850h504v399h-504v-399zM756 1382h626h463v336h-1089v-336zM1382 313h463v404h-463v-404zM1382 850h463v399h-463v-399z " />
<glyph unicode="|" horiz-adv-x="2002" d="M0 164v682v1022h2001v-477v-545v-682h-608h-787h-606zM137 299h469v412h-469v-412zM137 846h469v407h-469v-407zM743 299h514v412h-514v-412zM743 846h514v407h-514v-407zM1393 299h471v412h-471v-412zM1393 846h471v407h-471v-407z" />
<glyph unicode="}" d="M37 516v1022q0 98 38 185t102.5 151.5t151.5 102.5t185 38h1022q98 0 184 -38t150.5 -102.5t102.5 -151.5t38 -185v-1022q0 -98 -37 -185t-101.5 -151.5t-151.5 -102.5t-185 -38h-1022q-98 0 -185 38t-151.5 102.5t-102.5 151.5t-38 185zM213 516q0 -63 23.5 -117.5 t64.5 -95.5t95.5 -64.5t117.5 -23.5h1022q61 0 116.5 23.5t96.5 64.5t64.5 96.5t23.5 116.5v793h-1624v-793zM213 1489h707v211h-660q-47 -72 -47 -162v-49zM1106 1489h268v211h-268v-211zM1561 1489h270v110q-10 48 -41 101h-229v-211z" />
<glyph unicode="~" horiz-adv-x="2007" d="M0 162v684v543v477h2001v-477v-543v-684h-608h-787h-606zM137 297h469v408h-469v-408zM137 1389h469h787h471v342h-1727v-342zM743 297h514v408h-514v-408zM1393 297h471v408h-471v-408z" />
<glyph unicode="&#xad;" horiz-adv-x="1755" d="M0 287v512q0 31 21.5 52t52.5 21h512q23 0 40 -13t25 -32.5t5 -41t-19 -37.5l-158 -158q82 -76 185.5 -117t214.5 -41q150 0 284 76q135 76 213 205q6 10 21.5 41.5t38.5 91.5q12 27 34 26h220q16 0 26 -11t10 -25v-9q-74 -307 -307 -497q-231 -188 -547 -189 q-166 0 -321.5 62.5t-278.5 179.5l-147 -147q-16 -16 -37.5 -19.5t-41 4.5t-33 25.5t-13.5 40.5zM20 1200v8q74 307 310 498q238 190 549 190q166 0 323.5 -63.5t280.5 -179.5l147 147q16 16 38 19.5t41.5 -5t32.5 -25.5t13 -40v-512q0 -29 -21.5 -50.5t-52.5 -21.5h-512 q-23 0 -40 13.5t-25 32t-5 40t19 37.5l158 158q-170 158 -397 158q-156 0 -287 -74q-127 -72 -213 -205q-14 -23 -60 -135q-12 -25 -34 -25h-228q-16 0 -26.5 10.5t-10.5 24.5z" />
<glyph unicode="&#x2000;" horiz-adv-x="1035" />
<glyph unicode="&#x2001;" horiz-adv-x="2071" />
<glyph unicode="&#x2002;" horiz-adv-x="1035" />
<glyph unicode="&#x2003;" horiz-adv-x="2071" />
<glyph unicode="&#x2004;" horiz-adv-x="690" />
<glyph unicode="&#x2005;" horiz-adv-x="517" />
<glyph unicode="&#x2006;" horiz-adv-x="345" />
<glyph unicode="&#x2007;" horiz-adv-x="345" />
<glyph unicode="&#x2008;" horiz-adv-x="258" />
<glyph unicode="&#x2009;" horiz-adv-x="414" />
<glyph unicode="&#x200a;" horiz-adv-x="115" />
<glyph unicode="&#x2010;" horiz-adv-x="1755" d="M0 287v512q0 31 21.5 52t52.5 21h512q23 0 40 -13t25 -32.5t5 -41t-19 -37.5l-158 -158q82 -76 185.5 -117t214.5 -41q150 0 284 76q135 76 213 205q6 10 21.5 41.5t38.5 91.5q12 27 34 26h220q16 0 26 -11t10 -25v-9q-74 -307 -307 -497q-231 -188 -547 -189 q-166 0 -321.5 62.5t-278.5 179.5l-147 -147q-16 -16 -37.5 -19.5t-41 4.5t-33 25.5t-13.5 40.5zM20 1200v8q74 307 310 498q238 190 549 190q166 0 323.5 -63.5t280.5 -179.5l147 147q16 16 38 19.5t41.5 -5t32.5 -25.5t13 -40v-512q0 -29 -21.5 -50.5t-52.5 -21.5h-512 q-23 0 -40 13.5t-25 32t-5 40t19 37.5l158 158q-170 158 -397 158q-156 0 -287 -74q-127 -72 -213 -205q-14 -23 -60 -135q-12 -25 -34 -25h-228q-16 0 -26.5 10.5t-10.5 24.5z" />
<glyph unicode="&#x2011;" horiz-adv-x="1755" d="M0 287v512q0 31 21.5 52t52.5 21h512q23 0 40 -13t25 -32.5t5 -41t-19 -37.5l-158 -158q82 -76 185.5 -117t214.5 -41q150 0 284 76q135 76 213 205q6 10 21.5 41.5t38.5 91.5q12 27 34 26h220q16 0 26 -11t10 -25v-9q-74 -307 -307 -497q-231 -188 -547 -189 q-166 0 -321.5 62.5t-278.5 179.5l-147 -147q-16 -16 -37.5 -19.5t-41 4.5t-33 25.5t-13.5 40.5zM20 1200v8q74 307 310 498q238 190 549 190q166 0 323.5 -63.5t280.5 -179.5l147 147q16 16 38 19.5t41.5 -5t32.5 -25.5t13 -40v-512q0 -29 -21.5 -50.5t-52.5 -21.5h-512 q-23 0 -40 13.5t-25 32t-5 40t19 37.5l158 158q-170 158 -397 158q-156 0 -287 -74q-127 -72 -213 -205q-14 -23 -60 -135q-12 -25 -34 -25h-228q-16 0 -26.5 10.5t-10.5 24.5z" />
<glyph unicode="&#x2012;" horiz-adv-x="1755" d="M0 287v512q0 31 21.5 52t52.5 21h512q23 0 40 -13t25 -32.5t5 -41t-19 -37.5l-158 -158q82 -76 185.5 -117t214.5 -41q150 0 284 76q135 76 213 205q6 10 21.5 41.5t38.5 91.5q12 27 34 26h220q16 0 26 -11t10 -25v-9q-74 -307 -307 -497q-231 -188 -547 -189 q-166 0 -321.5 62.5t-278.5 179.5l-147 -147q-16 -16 -37.5 -19.5t-41 4.5t-33 25.5t-13.5 40.5zM20 1200v8q74 307 310 498q238 190 549 190q166 0 323.5 -63.5t280.5 -179.5l147 147q16 16 38 19.5t41.5 -5t32.5 -25.5t13 -40v-512q0 -29 -21.5 -50.5t-52.5 -21.5h-512 q-23 0 -40 13.5t-25 32t-5 40t19 37.5l158 158q-170 158 -397 158q-156 0 -287 -74q-127 -72 -213 -205q-14 -23 -60 -135q-12 -25 -34 -25h-228q-16 0 -26.5 10.5t-10.5 24.5z" />
<glyph unicode="&#x2013;" horiz-adv-x="1024" d="M0 287v512q0 31 12.5 52t30.5 21h299q13 0 23 -13t15 -32.5t3 -41t-11 -37.5l-93 -158q48 -76 108.5 -117t125.5 -41q87 0 166 76q78 76 124 205q3 10 12 41.5t23 91.5q7 27 20 26h128q9 0 15 -11t6 -25v-9q-43 -307 -179 -497q-135 -188 -319 -189q-97 0 -188 62.5 t-162 179.5l-86 -147q-9 -16 -21.5 -19.5t-24 4.5t-19.5 25.5t-8 40.5zM12 1200v8q43 307 181 498q138 190 320 190q97 0 189 -63.5t163 -179.5l86 147q9 16 22 19.5t24.5 -5t19 -25.5t7.5 -40v-512q0 -29 -12.5 -50.5t-30.5 -21.5h-299q-13 0 -23 13.5t-15 32t-3 40 t11 37.5l93 158q-100 158 -232 158q-91 0 -168 -74q-74 -72 -124 -205q-8 -23 -35 -135q-7 -25 -20 -25h-133q-9 0 -15 10.5t-6 24.5z" />
<glyph unicode="&#x2014;" d="M0 287v512q0 31 25 52t61 21h598q27 0 46.5 -13t29 -32.5t6 -41t-22.5 -37.5l-184 -158q96 -76 216.5 -117t250.5 -41q175 0 331 76q158 76 249 205q7 10 25 41.5t45 91.5q14 27 39 26h257q19 0 30.5 -11t11.5 -25v-9q-86 -307 -358 -497q-270 -188 -638 -189 q-194 0 -375.5 62.5t-325.5 179.5l-171 -147q-19 -16 -44 -19.5t-47.5 4.5t-38.5 25.5t-16 40.5zM23 1200v8q87 307 362 498q278 190 641 190q193 0 377 -63.5t328 -179.5l171 147q19 16 44.5 19.5t48.5 -5t38 -25.5t15 -40v-512q0 -29 -25 -50.5t-61 -21.5h-598 q-27 0 -46.5 13.5t-29 32t-6 40t22.5 37.5l184 158q-198 158 -463 158q-182 0 -335 -74q-148 -72 -249 -205q-16 -23 -70 -135q-14 -25 -39 -25h-266q-19 0 -31.5 10.5t-12.5 24.5z" />
<glyph unicode="&#x202f;" horiz-adv-x="414" />
<glyph unicode="&#x205f;" horiz-adv-x="517" />
<glyph unicode="&#x25fc;" horiz-adv-x="1935" d="M0 0v1935h1935v-1935h-1935z" />
<glyph />
<glyph />
<glyph />
<glyph />
<glyph />
</font>
</defs>
</svg>
